<?xml version="1.0" encoding="utf-8"?>
<!-- Generator: Adobe Illustrator 19.1.0, SVG Export Plug-In . SVG Version: 6.00 Build 0)  -->
<!DOCTYPE svg PUBLIC "-//W3C//DTD SVG 1.1//EN" "http://www.w3.org/Graphics/SVG/1.1/DTD/svg11.dtd">
<svg version="1.1" id="Layer_1" xmlns="http://www.w3.org/2000/svg" xmlns:xlink="http://www.w3.org/1999/xlink" x="0px" y="0px"
	 width="82.1px" height="95.9px" viewBox="0 0 82.1 95.9" style="enable-background:new 0 0 82.1 95.9;" xml:space="preserve">
<style type="text/css">
	.st0{fill:#FFFFFF;}
	.st1{fill:#E0F0DD;}
	.st2{fill:#664D5D;}
	.st3{fill:#64BFCC;}
	.st4{fill:#FFDDA8;}
	.st5{fill:#E6E7E8;}
	.st6{fill:#F26754;}
	.st7{fill:#F08D52;}
	.st8{fill:#FEED5B;}
</style>
<g>
	<g>
		<g>
			<path class="st2" d="M51.6,1H30.5C14.2,1,1,14.2,1,30.5v48.1c0,1.4,0.1,2.6,0.3,3.6c0-0.3-0.1-0.7-0.1-1c0-4.4,3.6-8,8-8
				c4.4,0,8,3.6,8,8c0-4.4,3.6-8,8-8c4.4,0,8,3.6,8,8c0-4.4,3.6-8,8-8s8,3.6,8,8c0-4.4,3.6-8,8-8s8,3.6,8,8c0-4.4,3.6-8,8-8
				c4.4,0,8,3.6,8,8V30.5C81.1,14.2,67.9,1,51.6,1z"/>
			<path class="st2" d="M1.3,83.1c-0.5,0-0.9-0.3-1-0.8C0.1,81.2,0,80,0,78.5V30.5C0,13.7,13.7,0,30.5,0h21.2
				c16.8,0,30.5,13.7,30.5,30.5v50.6c0,0.6-0.4,1-1,1s-1-0.4-1-1c0-3.9-3.1-7-7-7s-7,3.1-7,7c0,0.6-0.4,1-1,1s-1-0.4-1-1
				c0-3.9-3.1-7-7-7s-7,3.1-7,7c0,0.6-0.4,1-1,1s-1-0.4-1-1c0-3.9-3.1-7-7-7s-7,3.1-7,7c0,0.6-0.4,1-1,1s-1-0.4-1-1c0-3.9-3.1-7-7-7
				s-7,3.1-7,7c0,0.6-0.4,1-1,1s-1-0.4-1-1c0-3.9-3.1-7-7-7s-7,3.1-7,7c0,0.2,0,0.4,0.1,0.6l0,0.2c0.1,0.5-0.3,1-0.8,1.1
				C1.4,83.1,1.3,83.1,1.3,83.1z M57.1,72.1c3.5,0,6.5,2,8,4.9c1.5-2.9,4.5-4.9,8-4.9c2.8,0,5.3,1.3,7,3.3v-45
				C80.1,14.8,67.3,2,51.6,2H30.5C14.8,2,2,14.8,2,30.5v45.2c1.6-2.2,4.3-3.6,7.2-3.6c3.5,0,6.5,2,8,4.9c1.5-2.9,4.5-4.9,8-4.9
				s6.5,2,8,4.9c1.5-2.9,4.5-4.9,8-4.9s6.5,2,8,4.9C50.6,74.1,53.7,72.1,57.1,72.1z"/>
		</g>
	</g>
	<circle class="st6" cx="36.4" cy="28.7" r="7"/>
	<circle class="st6" cx="61.7" cy="28.7" r="7"/>
	<path class="st6" d="M64.5,52.6c-2.7,0-4.1-2-5.1-3.5c-1-1.5-1.6-2.2-2.6-2.2c-1,0-1.6,0.7-2.6,2.2c-1,1.5-2.4,3.5-5.1,3.5
		c-2.7,0-4.1-2-5.1-3.5c-1-1.5-1.6-2.2-2.6-2.2s-1.6,0.7-2.6,2.2c-1,1.5-2.4,3.5-5.1,3.5v-3c1,0,1.6-0.7,2.6-2.2
		c1.1-1.6,2.4-3.5,5.1-3.5s4.1,2,5.1,3.5c1,1.5,1.6,2.2,2.6,2.2c1,0,1.6-0.7,2.6-2.2c1-1.5,2.4-3.5,5.1-3.5c2.7,0,4.1,2,5.1,3.5
		c1,1.5,1.6,2.2,2.6,2.2V52.6z"/>
	<rect x="36.3" y="13.6" transform="matrix(0.8042 0.5944 -0.5944 0.8042 17.3089 -21.3512)" class="st5" width="9.5" height="4"/>
	<rect x="55" y="10.8" transform="matrix(0.5943 0.8043 -0.8043 0.5943 35.6828 -39.5476)" class="st5" width="4" height="9.5"/>
	<ellipse class="st5" cx="43.1" cy="93.6" rx="38" ry="2.3"/>
	<g>
		<path class="st5" d="M30.5,1C14.2,1,1,14.2,1,30.5v48.1c0,1.4,0.1,2.6,0.3,3.6c0-0.3-0.1-0.7-0.1-1c0-4.4,3.6-8,8-8
			c4.4,0,8,3.6,8,8V30.9C17.2,30.9,14.2,7.4,30.5,1z"/>
	</g>
</g>
</svg>
