<?xml version="1.0" encoding="utf-8"?>
<!-- Generator: Adobe Illustrator 19.1.0, SVG Export Plug-In . SVG Version: 6.00 Build 0)  -->
<!DOCTYPE svg PUBLIC "-//W3C//DTD SVG 1.1//EN" "http://www.w3.org/Graphics/SVG/1.1/DTD/svg11.dtd">
<svg version="1.1" id="Layer_1" xmlns="http://www.w3.org/2000/svg" xmlns:xlink="http://www.w3.org/1999/xlink" x="0px" y="0px"
	 width="122.1px" height="185px" viewBox="0 0 122.1 185" style="enable-background:new 0 0 122.1 185;" xml:space="preserve">
<style type="text/css">
	.st0{fill:#FFFFFF;}
	.st1{fill:#E0F0DD;}
	.st2{fill:#664D5D;}
	.st3{fill:#64BFCC;}
	.st4{fill:#FFDDA8;}
	.st5{fill:#E6E7E8;}
	.st6{fill:#F26754;}
	.st7{fill:#F08D52;}
	.st8{fill:#FEED5B;}
</style>
<g>
	<rect x="64.6" y="146.4" class="st3" width="7" height="32.7"/>
	<g>
		<rect x="64.1" y="170.2" class="st2" width="8" height="9.6"/>
		<rect x="51.3" y="177" class="st2" width="21" height="8"/>
	</g>
	<polygon class="st3" points="80.3,167.6 80.3,146.4 87.3,146.4 87.3,160.5 98.7,160.2 98.9,167.2 	"/>
	<path class="st4" d="M31.1,73V57.5l-7.3-0.3l7.3-12V30c0-14.9,12.1-27,27-27h37.1c14.9,0,27,12.1,27,27v43H31.1z"/>
	<path class="st3" d="M106.3,149H47c-8.8,0-15.9-7.1-15.9-15.9V73h91v60.1C122.1,141.9,115,149,106.3,149z"/>
	<path class="st5" d="M122.1,133.2c0,8.8-7.1,15.9-15.9,15.9H47c-8.8,0-15.9-7.1-15.9-15.9V73h17.6c0,0,0,38.3,0,48.7
		s5,11.2,11,11.2S122.1,133.2,122.1,133.2z"/>
	<path class="st2" d="M103,4.2C92.3,7.4,84.6,17.3,84.6,29c0,14.4,11.6,26,26,26c4.1,0,8-1,11.5-2.7V30C122.1,17.8,114,7.5,103,4.2z
		"/>
	<path class="st2" d="M31.1,62.2c0,0,19.9-10.5,20-4c0.2,16.9-10,4.7-20,7.3V62.2z"/>
	<circle class="st2" cx="39.1" cy="45.2" r="2.1"/>
	<rect x="36.7" y="68.3" transform="matrix(0.1363 0.9907 -0.9907 0.1363 135.1525 47.6944)" class="st3" width="7" height="66.1"/>
	<circle class="st4" cx="7.5" cy="105.9" r="7.5"/>
	<g>
		<rect x="89.9" y="159.8" class="st2" width="9.6" height="8"/>
		<rect x="96.7" y="159.7" class="st2" width="8" height="21"/>
	</g>
	<rect x="31.1" y="26" class="st2" width="63.5" height="8"/>
	<path class="st3" d="M43.1,29.4h-24c-1.9,0-3.5-1.6-3.5-3.5s1.6-3.5,3.5-3.5h24c1.9,0,3.5,1.6,3.5,3.5S45,29.4,43.1,29.4z"/>
	<path class="st3" d="M31.1,30c0-14.9,12.1-27,27-27h37.1c14.9,0,27,12.1,27,27"/>
	<circle class="st3" cx="76.6" cy="3" r="3"/>
</g>
</svg>
