<?xml version="1.0" encoding="utf-8"?>
<!-- Generator: Adobe Illustrator 19.1.0, SVG Export Plug-In . SVG Version: 6.00 Build 0)  -->
<!DOCTYPE svg PUBLIC "-//W3C//DTD SVG 1.1//EN" "http://www.w3.org/Graphics/SVG/1.1/DTD/svg11.dtd">
<svg version="1.1" id="Layer_1" xmlns="http://www.w3.org/2000/svg" xmlns:xlink="http://www.w3.org/1999/xlink" x="0px" y="0px"
	 width="167.3px" height="185.9px" viewBox="0 0 167.3 185.9" style="enable-background:new 0 0 167.3 185.9;" xml:space="preserve"
	>
<style type="text/css">
	.st0{fill:#FFFFFF;}
	.st1{fill:#E0F0DD;}
	.st2{fill:#664D5D;}
	.st3{fill:#64BFCC;}
	.st4{fill:#FFDDA8;}
	.st5{fill:#E6E7E8;}
	.st6{fill:#F26754;}
	.st7{fill:#F08D52;}
	.st8{fill:#FEED5B;}
</style>
<g>
	<rect x="73.3" y="146.4" class="st3" width="7" height="32.7"/>
	<rect x="72.8" y="174.6" class="st2" width="8" height="10.7"/>
	<rect x="71.5" y="177.9" class="st2" width="10.7" height="8"/>
	<polygon class="st3" points="89,167.6 89,146.4 96,146.4 96,160.5 107.4,160.2 107.6,167.2 	"/>
	<path class="st4" d="M39.8,73V30c0-14.9,12.1-27,27-27h37.1c14.9,0,27,12.1,27,27v43H39.8z"/>
	<path class="st3" d="M115,149H55.7c-8.8,0-15.9-7.1-15.9-15.9V73h91v60.1C130.8,141.9,123.7,149,115,149z"/>
	<path class="st5" d="M115,149H55.7c-8.8,0-15.9-7.1-15.9-15.9v-7.5h91v7.5C130.8,141.9,123.7,149,115,149z"/>
	<rect x="36.7" y="53.3" transform="matrix(0.1363 0.9907 -0.9907 0.1363 120.2934 34.7407)" class="st3" width="7" height="66.1"/>
	<circle class="st4" cx="7.5" cy="90.9" r="7.5"/>
	<rect x="94.1" y="82.9" transform="matrix(0.9907 0.1362 -0.1362 0.9907 12.9499 -16.5092)" class="st3" width="66.1" height="7"/>
	<circle class="st4" cx="159.8" cy="90.9" r="7.5"/>
	<g>
		<rect x="98.6" y="159.8" class="st2" width="9.6" height="8"/>
		<rect x="105.4" y="159.7" class="st2" width="8" height="21"/>
	</g>
	<rect x="39.8" y="26" class="st2" width="91" height="8"/>
	<path class="st2" d="M122.4,28.6c0,20.4-16.6,37-37,37s-37-16.6-37-37s16.6-19.4,37-19.4S122.4,8.2,122.4,28.6z"/>
	<path class="st3" d="M39.8,30c0-14.9,12.1-27,27-27h37.1c14.9,0,27,12.1,27,27"/>
	<circle class="st3" cx="85.3" cy="3" r="3"/>
</g>
</svg>
