<?xml version="1.0" encoding="utf-8"?>
<!-- Generator: Adobe Illustrator 19.1.0, SVG Export Plug-In . SVG Version: 6.00 Build 0)  -->
<!DOCTYPE svg PUBLIC "-//W3C//DTD SVG 1.1//EN" "http://www.w3.org/Graphics/SVG/1.1/DTD/svg11.dtd">
<svg version="1.1" id="Layer_1" xmlns="http://www.w3.org/2000/svg" xmlns:xlink="http://www.w3.org/1999/xlink" x="0px" y="0px"
	 width="122.1px" height="185px" viewBox="0 0 122.1 185" style="enable-background:new 0 0 122.1 185;" xml:space="preserve">
<style type="text/css">
	.st0{fill:#FFFFFF;}
	.st1{fill:#E0F0DD;}
	.st2{fill:#664D5D;}
	.st3{fill:#64BFCC;}
	.st4{fill:#FFDDA8;}
	.st5{fill:#E6E7E8;}
	.st6{fill:#F26754;}
	.st7{fill:#F08D52;}
	.st8{fill:#FEED5B;}
</style>
<g>
	<rect x="50.5" y="146.4" class="st3" width="7" height="32.7"/>
	<g>
		<rect x="50" y="170.2" class="st2" width="8" height="9.6"/>
		<rect x="49.9" y="177" class="st2" width="21" height="8"/>
	</g>
	<polygon class="st3" points="41.8,167.6 23.3,167.2 23.4,160.2 34.8,160.5 34.8,146.4 41.8,146.4 	"/>
	<path class="st4" d="M91,73V57.5l7.3-0.3l-7.3-12V30C91,15.1,78.9,3,64,3H27C12.1,3,0,15.1,0,30l0,43H91z"/>
	<path class="st3" d="M15.9,149h59.3c8.8,0,15.9-7.1,15.9-15.9V73H0l0,60.1C0,141.9,7.1,149,15.9,149z"/>
	<path class="st5" d="M0,133.2c0,8.8,7.1,15.9,15.9,15.9h59.3c8.8,0,15.9-7.1,15.9-15.9V73H73.4c0,0,0,38.3,0,48.7s-5,11.2-11,11.2
		S0,133.2,0,133.2z"/>
	<path class="st2" d="M19.2,4.2C29.8,7.4,37.5,17.3,37.5,29c0,14.4-11.6,26-26,26c-4.1,0-8-1-11.5-2.7L0,30C0,17.8,8.1,7.5,19.2,4.2
		z"/>
	<path class="st2" d="M91,62.2c0,0-19.9-10.5-20-4c-0.2,16.9,10,4.7,20,7.3V62.2z"/>
	<circle class="st2" cx="83" cy="45.2" r="2.1"/>
	<rect x="48.9" y="97.9" transform="matrix(0.9907 0.1362 -0.1362 0.9907 14.572 -10.2113)" class="st3" width="66.1" height="7"/>
	<circle class="st4" cx="114.6" cy="105.9" r="7.5"/>
	<g>
		<rect x="22.7" y="159.8" class="st2" width="9.6" height="8"/>
		<rect x="17.5" y="159.7" class="st2" width="8" height="21"/>
	</g>
	<rect x="27.5" y="26" class="st2" width="63.5" height="8"/>
	<path class="st3" d="M103,29.4H79c-1.9,0-3.5-1.6-3.5-3.5s1.6-3.5,3.5-3.5h24c1.9,0,3.5,1.6,3.5,3.5S104.9,29.4,103,29.4z"/>
	<path class="st3" d="M91,30C91,15.1,78.9,3,64,3H27C12.1,3,0,15.1,0,30"/>
	<circle class="st3" cx="45.5" cy="3" r="3"/>
</g>
</svg>
