<?xml version="1.0" encoding="utf-8"?>
<!-- Generator: Adobe Illustrator 19.1.0, SVG Export Plug-In . SVG Version: 6.00 Build 0)  -->
<!DOCTYPE svg PUBLIC "-//W3C//DTD SVG 1.1//EN" "http://www.w3.org/Graphics/SVG/1.1/DTD/svg11.dtd">
<svg version="1.1" id="Layer_1" xmlns="http://www.w3.org/2000/svg" xmlns:xlink="http://www.w3.org/1999/xlink" x="0px" y="0px"
	 width="68.2px" height="68.2px" viewBox="0 0 68.2 68.2" style="enable-background:new 0 0 68.2 68.2;" xml:space="preserve">
<style type="text/css">
	.st0{fill:#FFFFFF;}
	.st1{fill:#E0F0DD;}
	.st2{fill:#664D5D;}
	.st3{fill:#64BFCC;}
	.st4{fill:#FFDDA8;}
	.st5{fill:#E6E7E8;}
	.st6{fill:#F26754;}
	.st7{fill:#F08D52;}
	.st8{fill:#FEED5B;}
</style>
<g>
	<g>
		<circle class="st8" cx="34.1" cy="34.1" r="33.1"/>
		<path class="st8" d="M34.1,68.2C15.3,68.2,0,52.9,0,34.1S15.3,0,34.1,0s34.1,15.3,34.1,34.1S52.9,68.2,34.1,68.2z M34.1,2
			C16.4,2,2,16.4,2,34.1c0,17.7,14.4,32.1,32.1,32.1s32.1-14.4,32.1-32.1C66.2,16.4,51.8,2,34.1,2z"/>
	</g>
	<g>
		<polygon class="st6" points="45.4,31.2 32.7,31.2 32.7,10 20,37 32.7,37 32.7,58.2 		"/>
		<g>
			<polygon class="st5" points="32.7,10 20,37 22.8,37 32.7,16 			"/>
			<polygon class="st5" points="35.5,37 32.7,37 32.7,58.2 35.5,52.2 			"/>
		</g>
	</g>
</g>
</svg>
