<?xml version="1.0" encoding="utf-8"?>
<!-- Generator: Adobe Illustrator 19.1.0, SVG Export Plug-In . SVG Version: 6.00 Build 0)  -->
<!DOCTYPE svg PUBLIC "-//W3C//DTD SVG 1.1//EN" "http://www.w3.org/Graphics/SVG/1.1/DTD/svg11.dtd">
<svg version="1.1" id="Layer_1" xmlns="http://www.w3.org/2000/svg" xmlns:xlink="http://www.w3.org/1999/xlink" x="0px" y="0px"
	 width="167.3px" height="185.9px" viewBox="0 0 167.3 185.9" style="enable-background:new 0 0 167.3 185.9;" xml:space="preserve"
	>
<style type="text/css">
	.st0{fill:#FFFFFF;}
	.st1{fill:#E0F0DD;}
	.st2{fill:#664D5D;}
	.st3{fill:#64BFCC;}
	.st4{fill:#FFDDA8;}
	.st5{fill:#E6E7E8;}
	.st6{fill:#F26754;}
	.st7{fill:#F08D52;}
	.st8{fill:#FEED5B;}
</style>
<g>
	<path class="st4" d="M39.8,73V30c0-14.9,12.1-27,27-27h37.1c14.9,0,27,12.1,27,27v43H39.8z"/>
	<rect x="91.3" y="146.4" class="st3" width="7" height="32.7"/>
	<rect x="90.8" y="174.6" class="st2" width="8" height="10.7"/>
	<rect x="89.5" y="177.9" class="st2" width="10.7" height="8"/>
	<polygon class="st3" points="80.9,167.6 62.3,167.2 62.5,160.2 73.9,160.5 73.9,146.4 80.9,146.4 	"/>
	<path class="st3" d="M115,149H55.7c-8.8,0-15.9-7.1-15.9-15.9V73h91v60.1C130.8,141.9,123.7,149,115,149z"/>
	<path class="st5" d="M115,149H55.7c-8.8,0-15.9-7.1-15.9-15.9v-7.5h91v7.5C130.8,141.9,123.7,149,115,149z"/>
	<rect x="36.7" y="53.3" transform="matrix(0.1363 0.9907 -0.9907 0.1363 120.2935 34.7406)" class="st3" width="7" height="66.1"/>
	<circle class="st4" cx="7.5" cy="90.9" r="7.5"/>
	<rect x="94.1" y="82.9" transform="matrix(0.9907 0.1362 -0.1362 0.9907 12.9499 -16.5092)" class="st3" width="66.1" height="7"/>
	<circle class="st4" cx="159.8" cy="90.9" r="7.5"/>
	<g>
		<rect x="61.7" y="159.8" class="st2" width="9.6" height="8"/>
		<rect x="56.5" y="159.7" class="st2" width="8" height="21"/>
	</g>
	<circle class="st3" cx="85.3" cy="3" r="3"/>
	<path class="st2" d="M40.2,30c0-7.5,3.1-14.4,8.1-19.3c4.9,4.7,7.9,11.3,7.9,18.7c0,10.8-6.6,20.1-16,24V30z"/>
	<path class="st2" d="M130.8,30c0-7.5-3.1-14.4-8.1-19.3c-4.9,4.7-7.9,11.3-7.9,18.7c0,10.8,6.6,20.1,16,24V30z"/>
	<path class="st3" d="M136.5,33.5H34.2c-1.9,0-3.5-1.6-3.5-3.5s1.6-3.5,3.5-3.5h102.3c1.9,0,3.5,1.6,3.5,3.5S138.4,33.5,136.5,33.5z
		"/>
	<path class="st3" d="M39.8,30c0-14.9,12.1-27,27-27h37.1c14.9,0,27,12.1,27,27"/>
	<circle class="st2" cx="72.9" cy="45.2" r="2.1"/>
	<circle class="st2" cx="92.5" cy="45.2" r="2.1"/>
	<path class="st2" d="M83.2,53.4c0,0-18.8-4.3-19,3.7s3.5,12.2,9.5,9c6-3.2,16.3,4,25.7-0.3s3.7-15.6-1.7-13.5
		C92.3,54.3,83.2,53.4,83.2,53.4z"/>
	<path class="st6" d="M94.5,67.1C92.1,64,88.4,62,84.2,62c-3.4,0-6.5,1.3-8.8,3.4C80.4,64.4,87.5,67.9,94.5,67.1z"/>
</g>
</svg>
