<svg id="Layer_1" xmlns="http://www.w3.org/2000/svg" width="82.1" height="95.9" viewBox="0 0 82.1 95.9"><style>.st0{fill:#FFF}.st1{fill:#e0f0dd}.st2{fill:#664d5d}.st3{fill:#64bfcc}.st4{fill:#ffdda8}.st5{fill:#e6e7e8}.st6{fill:#f26754}.st7{fill:#f08d52}.st8{fill:#feed5b}</style><path class="st2" d="M51.6 1H30.5C14.2 1 1 14.2 1 30.5v48.1c0 1.4.1 2.6.3 3.6 0-.3-.1-.7-.1-1 0-4.4 3.6-8 8-8s8 3.6 8 8c0-4.4 3.6-8 8-8s8 3.6 8 8c0-4.4 3.6-8 8-8s8 3.6 8 8c0-4.4 3.6-8 8-8s8 3.6 8 8c0-4.4 3.6-8 8-8s8 3.6 8 8V30.5C81.1 14.2 67.9 1 51.6 1z"/><path class="st2" d="M1.3 83.1c-.5 0-.9-.3-1-.8C.1 81.2 0 80 0 78.5v-48C0 13.7 13.7 0 30.5 0h21.2c16.8 0 30.5 13.7 30.5 30.5v50.6c0 .6-.4 1-1 1s-1-.4-1-1c0-3.9-3.1-7-7-7s-7 3.1-7 7c0 .6-.4 1-1 1s-1-.4-1-1c0-3.9-3.1-7-7-7s-7 3.1-7 7c0 .6-.4 1-1 1s-1-.4-1-1c0-3.9-3.1-7-7-7s-7 3.1-7 7c0 .6-.4 1-1 1s-1-.4-1-1c0-3.9-3.1-7-7-7s-7 3.1-7 7c0 .6-.4 1-1 1s-1-.4-1-1c0-3.9-3.1-7-7-7s-7 3.1-7 7c0 .2 0 .4.1.6v.2c.1.5-.3 1-.8 1.1-.1.1-.2.1-.2.1zm55.8-11c3.5 0 6.5 2 8 4.9 1.5-2.9 4.5-4.9 8-4.9 2.8 0 5.3 1.3 7 3.3v-45C80.1 14.8 67.3 2 51.6 2H30.5C14.8 2 2 14.8 2 30.5v45.2c1.6-2.2 4.3-3.6 7.2-3.6 3.5 0 6.5 2 8 4.9 1.5-2.9 4.5-4.9 8-4.9s6.5 2 8 4.9c1.5-2.9 4.5-4.9 8-4.9s6.5 2 8 4.9c1.4-2.9 4.5-4.9 7.9-4.9z"/><circle class="st6" cx="36.4" cy="28.7" r="7"/><circle class="st6" cx="61.7" cy="28.7" r="7"/><path class="st6" d="M64.5 52.6c-2.7 0-4.1-2-5.1-3.5s-1.6-2.2-2.6-2.2-1.6.7-2.6 2.2c-1 1.5-2.4 3.5-5.1 3.5-2.7 0-4.1-2-5.1-3.5s-1.6-2.2-2.6-2.2-1.6.7-2.6 2.2c-1 1.5-2.4 3.5-5.1 3.5v-3c1 0 1.6-.7 2.6-2.2 1.1-1.6 2.4-3.5 5.1-3.5s4.1 2 5.1 3.5 1.6 2.2 2.6 2.2 1.6-.7 2.6-2.2c1-1.5 2.4-3.5 5.1-3.5 2.7 0 4.1 2 5.1 3.5s1.6 2.2 2.6 2.2v3z"/><path class="st5" d="M38.418 11.163l7.64 5.646-2.378 3.216-7.64-5.647zM59.683 11.107l2.377 3.218-7.64 5.645-2.378-3.217z"/><ellipse class="st5" cx="43.1" cy="93.6" rx="38" ry="2.3"/><g><path class="st5" d="M30.5 1C14.2 1 1 14.2 1 30.5v48.1c0 1.4.1 2.6.3 3.6 0-.3-.1-.7-.1-1 0-4.4 3.6-8 8-8s8 3.6 8 8V30.9S14.2 7.4 30.5 1z"/></g></svg>