<svg id="Layer_1" xmlns="http://www.w3.org/2000/svg" width="122.1" height="185" viewBox="0 0 122.1 185"><style>.st0{fill:#FFF}.st1{fill:#e0f0dd}.st2{fill:#664d5d}.st3{fill:#64bfcc}.st4{fill:#ffdda8}.st5{fill:#e6e7e8}.st6{fill:#f26754}.st7{fill:#f08d52}.st8{fill:#feed5b}</style><path class="st3" d="M64.6 146.4h7v32.7h-7z"/><path class="st2" d="M64.1 170.2h8v9.6h-8z"/><path class="st2" d="M51.3 177h21v8h-21z"/><path class="st3" d="M80.3 167.6v-21.2h7v14.1l11.4-.3.2 7z"/><path class="st4" d="M31.1 73V57.5l-7.3-.3 7.3-12V30c0-14.9 12.1-27 27-27h37.1c14.9 0 27 12.1 27 27v43H31.1z"/><path class="st3" d="M106.3 149H47c-8.8 0-15.9-7.1-15.9-15.9V73h91v60.1c0 8.8-7.1 15.9-15.8 15.9z"/><path class="st5" d="M122.1 133.2c0 8.8-7.1 15.9-15.9 15.9H47c-8.8 0-15.9-7.1-15.9-15.9V73h17.6v48.7c0 10.4 5 11.2 11 11.2s62.4.3 62.4.3z"/><path class="st2" d="M103 4.2C92.3 7.4 84.6 17.3 84.6 29c0 14.4 11.6 26 26 26 4.1 0 8-1 11.5-2.7V30c0-12.2-8.1-22.5-19.1-25.8zM31.1 62.2s19.9-10.5 20-4c.2 16.9-10 4.7-20 7.3v-3.3z"/><circle class="st2" cx="39.1" cy="45.2" r="2.1"/><path class="st3" d="M72.49 93.362l.954 6.935-65.485 9.01-.955-6.935z"/><circle class="st4" cx="7.5" cy="105.9" r="7.5"/><path class="st2" d="M89.9 159.8h9.6v8h-9.6z"/><path class="st2" d="M96.7 159.7h8v21h-8zM31.1 26h63.5v8H31.1z"/><path class="st3" d="M43.1 29.4h-24c-1.9 0-3.5-1.6-3.5-3.5s1.6-3.5 3.5-3.5h24c1.9 0 3.5 1.6 3.5 3.5s-1.6 3.5-3.5 3.5z"/><path class="st3" d="M31.1 30c0-14.9 12.1-27 27-27h37.1c14.9 0 27 12.1 27 27"/><circle class="st3" cx="76.6" cy="3" r="3"/></svg>