<svg id="Layer_1" xmlns="http://www.w3.org/2000/svg" width="122.1" height="185" viewBox="0 0 122.1 185"><style>.st0{fill:#FFF}.st1{fill:#e0f0dd}.st2{fill:#664d5d}.st3{fill:#64bfcc}.st4{fill:#ffdda8}.st5{fill:#e6e7e8}.st6{fill:#f26754}.st7{fill:#f08d52}.st8{fill:#feed5b}</style><path class="st3" d="M50.5 146.4h7v32.7h-7z"/><path class="st2" d="M50 170.2h8v9.6h-8z"/><path class="st2" d="M49.9 177h21v8h-21z"/><path class="st3" d="M41.8 167.6l-18.5-.4.1-7 11.4.3v-14.1h7z"/><path class="st4" d="M91 73V57.5l7.3-.3-7.3-12V30C91 15.1 78.9 3 64 3H27C12.1 3 0 15.1 0 30v43h91z"/><path class="st3" d="M15.9 149h59.3c8.8 0 15.9-7.1 15.9-15.9V73H0v60.1c0 8.8 7.1 15.9 15.9 15.9z"/><path class="st5" d="M0 133.2c0 8.8 7.1 15.9 15.9 15.9h59.3c8.8 0 15.9-7.1 15.9-15.9V73H73.4v48.7c0 10.4-5 11.2-11 11.2s-62.4.3-62.4.3z"/><path class="st2" d="M19.2 4.2C29.8 7.4 37.5 17.3 37.5 29c0 14.4-11.6 26-26 26-4.1 0-8-1-11.5-2.7V30C0 17.8 8.1 7.5 19.2 4.2zM91 62.2s-19.9-10.5-20-4c-.2 16.9 10 4.7 20 7.3v-3.3z"/><circle class="st2" cx="83" cy="45.2" r="2.1"/><path class="st3" d="M49.683 93.438l65.486 9.003-.955 6.936-65.485-9.003z"/><circle class="st4" cx="114.6" cy="105.9" r="7.5"/><path class="st2" d="M22.7 159.8h9.6v8h-9.6z"/><path class="st2" d="M17.5 159.7h8v21h-8zM27.5 26H91v8H27.5z"/><path class="st3" d="M103 29.4H79c-1.9 0-3.5-1.6-3.5-3.5s1.6-3.5 3.5-3.5h24c1.9 0 3.5 1.6 3.5 3.5s-1.6 3.5-3.5 3.5z"/><path class="st3" d="M91 30C91 15.1 78.9 3 64 3H27C12.1 3 0 15.1 0 30"/><circle class="st3" cx="45.5" cy="3" r="3"/></svg>