<svg id="Layer_1" xmlns="http://www.w3.org/2000/svg" width="167.3" height="185.9" viewBox="0 0 167.3 185.9"><style>.st0{fill:#FFF}.st1{fill:#e0f0dd}.st2{fill:#664d5d}.st3{fill:#64bfcc}.st4{fill:#ffdda8}.st5{fill:#e6e7e8}.st6{fill:#f26754}.st7{fill:#f08d52}.st8{fill:#feed5b}</style><path class="st3" d="M73.3 146.4h7v32.7h-7z"/><path class="st2" d="M72.8 174.6h8v10.7h-8z"/><path class="st2" d="M71.5 177.9h10.7v8H71.5z"/><path class="st3" d="M89 167.6v-21.2h7v14.1l11.4-.3.2 7z"/><path class="st4" d="M39.8 73V30c0-14.9 12.1-27 27-27h37.1c14.9 0 27 12.1 27 27v43H39.8z"/><path class="st3" d="M115 149H55.7c-8.8 0-15.9-7.1-15.9-15.9V73h91v60.1c0 8.8-7.1 15.9-15.8 15.9z"/><path class="st5" d="M115 149H55.7c-8.8 0-15.9-7.1-15.9-15.9v-7.5h91v7.5c0 8.8-7.1 15.9-15.8 15.9z"/><path class="st3" d="M72.49 78.364l.955 6.935L7.96 94.31l-.954-6.936z"/><circle class="st4" cx="7.5" cy="90.9" r="7.5"/><path class="st3" d="M94.884 78.436l65.485 9.003-.954 6.934L93.93 85.37z"/><circle class="st4" cx="159.8" cy="90.9" r="7.5"/><path class="st2" d="M98.6 159.8h9.6v8h-9.6z"/><path class="st2" d="M105.4 159.7h8v21h-8zM39.8 26h91v8h-91z"/><path class="st2" d="M122.4 28.6c0 20.4-16.6 37-37 37s-37-16.6-37-37S65 9.2 85.4 9.2s37-1 37 19.4z"/><path class="st3" d="M39.8 30c0-14.9 12.1-27 27-27h37.1c14.9 0 27 12.1 27 27"/><circle class="st3" cx="85.3" cy="3" r="3"/></svg>