<svg id="Layer_1" xmlns="http://www.w3.org/2000/svg" width="167.3" height="185.9" viewBox="0 0 167.3 185.9"><style>.st0{fill:#FFF}.st1{fill:#e0f0dd}.st2{fill:#664d5d}.st3{fill:#64bfcc}.st4{fill:#ffdda8}.st5{fill:#e6e7e8}.st6{fill:#f26754}.st7{fill:#f08d52}.st8{fill:#feed5b}</style><path class="st4" d="M39.8 73V30c0-14.9 12.1-27 27-27h37.1c14.9 0 27 12.1 27 27v43H39.8z"/><path class="st3" d="M91.3 146.4h7v32.7h-7z"/><path class="st2" d="M90.8 174.6h8v10.7h-8z"/><path class="st2" d="M89.5 177.9h10.7v8H89.5z"/><path class="st3" d="M80.9 167.6l-18.6-.4.2-7 11.4.3v-14.1h7z"/><path class="st3" d="M115 149H55.7c-8.8 0-15.9-7.1-15.9-15.9V73h91v60.1c0 8.8-7.1 15.9-15.8 15.9z"/><path class="st5" d="M115 149H55.7c-8.8 0-15.9-7.1-15.9-15.9v-7.5h91v7.5c0 8.8-7.1 15.9-15.8 15.9z"/><path class="st3" d="M72.49 78.364l.956 6.935L7.96 94.307l-.954-6.934z"/><circle class="st4" cx="7.5" cy="90.9" r="7.5"/><path class="st3" d="M94.884 78.436l65.485 9.003-.954 6.934L93.93 85.37z"/><circle class="st4" cx="159.8" cy="90.9" r="7.5"/><path class="st2" d="M61.7 159.8h9.6v8h-9.6z"/><path class="st2" d="M56.5 159.7h8v21h-8z"/><circle class="st3" cx="85.3" cy="3" r="3"/><path class="st2" d="M40.2 30c0-7.5 3.1-14.4 8.1-19.3 4.9 4.7 7.9 11.3 7.9 18.7 0 10.8-6.6 20.1-16 24V30zM130.8 30c0-7.5-3.1-14.4-8.1-19.3-4.9 4.7-7.9 11.3-7.9 18.7 0 10.8 6.6 20.1 16 24V30z"/><path class="st3" d="M136.5 33.5H34.2c-1.9 0-3.5-1.6-3.5-3.5s1.6-3.5 3.5-3.5h102.3c1.9 0 3.5 1.6 3.5 3.5s-1.6 3.5-3.5 3.5z"/><path class="st3" d="M39.8 30c0-14.9 12.1-27 27-27h37.1c14.9 0 27 12.1 27 27"/><circle class="st2" cx="72.9" cy="45.2" r="2.1"/><circle class="st2" cx="92.5" cy="45.2" r="2.1"/><path class="st2" d="M83.2 53.4s-18.8-4.3-19 3.7 3.5 12.2 9.5 9c6-3.2 16.3 4 25.7-.3s3.7-15.6-1.7-13.5c-5.4 2-14.5 1.1-14.5 1.1z"/><path class="st6" d="M94.5 67.1C92.1 64 88.4 62 84.2 62c-3.4 0-6.5 1.3-8.8 3.4 5-1 12.1 2.5 19.1 1.7z"/></svg>