<svg id="Layer_1" xmlns="http://www.w3.org/2000/svg" width="68.2" height="68.2" viewBox="0 0 68.2 68.2"><style>.st0{fill:#FFF}.st1{fill:#e0f0dd}.st2{fill:#664d5d}.st3{fill:#64bfcc}.st4{fill:#ffdda8}.st5{fill:#e6e7e8}.st6{fill:#f26754}.st7{fill:#f08d52}.st8{fill:#feed5b}</style><circle class="st8" cx="34.1" cy="34.1" r="33.1"/><path class="st8" d="M34.1 68.2C15.3 68.2 0 52.9 0 34.1S15.3 0 34.1 0s34.1 15.3 34.1 34.1-15.3 34.1-34.1 34.1zm0-66.2C16.4 2 2 16.4 2 34.1c0 17.7 14.4 32.1 32.1 32.1s32.1-14.4 32.1-32.1C66.2 16.4 51.8 2 34.1 2z"/><g><path class="st6" d="M45.4 31.2H32.7V10L20 37h12.7v21.2z"/><path class="st5" d="M32.7 10L20 37h2.8l9.9-21zM35.5 37h-2.8v21.2l2.8-6z"/></g></svg>