<svg id="Layer_1" xmlns="http://www.w3.org/2000/svg" width="68.2" height="68.2" viewBox="0 0 68.2 68.2"><style>.st0{fill:#FFF}.st1{fill:#e0f0dd}.st2{fill:#664d5d}.st3{fill:#64bfcc}.st4{fill:#ffdda8}.st5{fill:#e6e7e8}.st6{fill:#f26754}.st7{fill:#f08d52}.st8{fill:#feed5b}</style><circle class="st8" cx="34.1" cy="34.1" r="33.1"/><path class="st8" d="M34.1 68.2C15.3 68.2 0 52.9 0 34.1S15.3 0 34.1 0s34.1 15.3 34.1 34.1-15.3 34.1-34.1 34.1zm0-66.2C16.4 2 2 16.4 2 34.1c0 17.7 14.4 32.1 32.1 32.1 17.7 0 32.1-14.4 32.1-32.1C66.2 16.4 51.8 2 34.1 2z"/><g><path class="st7" d="M35.3 45.6c9 0 16.8-4.9 20.9-12.2-4.2-7.2-12-12.1-20.9-12.1s-16.8 4.9-20.9 12.2c4.1 7.2 11.9 12.1 20.9 12.1z"/><circle class="st2" cx="35.3" cy="33.5" r="8.8"/><circle class="st5" cx="35.3" cy="33.5" r="5.7"/><circle class="st0" cx="36.5" cy="30.9" r="1.2"/><circle class="st0" cx="39.4" cy="29.5" r=".9"/></g></svg>