<svg id="Layer_1" xmlns="http://www.w3.org/2000/svg" width="68.2" height="68.2" viewBox="0 0 68.2 68.2"><style>.st0{fill:#FFF}.st1{fill:#e0f0dd}.st2{fill:#664d5d}.st3{fill:#64bfcc}.st4{fill:#ffdda8}.st5{fill:#e6e7e8}.st6{fill:#f26754}.st7{fill:#f08d52}.st8{fill:#feed5b}</style><circle class="st8" cx="34.1" cy="34.1" r="33.1"/><path class="st8" d="M34.1 68.2C15.3 68.2 0 52.9 0 34.1S15.3 0 34.1 0s34.1 15.3 34.1 34.1-15.3 34.1-34.1 34.1zm0-66.2C16.4 2 2 16.4 2 34.1c0 17.7 14.4 32.1 32.1 32.1s32.1-14.4 32.1-32.1C66.2 16.4 51.8 2 34.1 2z"/><g><path class="st3" d="M51.1 16.9s-12 0-17-4.2c-5 4.2-17 4.2-17 4.2s-4.2 27.9 17 38.7c21.2-10.8 17-38.7 17-38.7z"/><path class="st5" d="M47.7 20.3s-9.6 0-13.6-3.4c-4 3.4-13.6 3.4-13.6 3.4s-3.4 22.4 13.6 31c17-8.6 13.6-31 13.6-31z"/><path class="st5" d="M34.1 55.5c21.2-10.8 17-38.7 17-38.7s-12 0-17-4.2"/></g></svg>